<?xml version="1.0" standalone="no"?><!DOCTYPE svg PUBLIC "-//W3C//DTD SVG 1.1//EN"
        "http://www.w3.org/Graphics/SVG/1.1/DTD/svg11.dtd">
<svg t="1564465321748" class="icon" viewBox="0 0 1024 1024" version="1.1" xmlns="http://www.w3.org/2000/svg" p-id="2081"
     width="48" height="48" xmlns:xlink="http://www.w3.org/1999/xlink">
    <defs>
        <style type="text/css"></style>
    </defs>
    <path d="M840.533333 183.466667c8.533333 0 17.066667 0 29.866667 12.8 12.8 12.8 12.8 25.6 12.8 29.866666 0 8.533333 0 21.333333-12.8 29.866667L554.666667 563.2l-64 12.8 12.8-64L810.666667 196.266667c12.8-12.8 25.6-12.8 29.866666-12.8m0-85.333334c-34.133333 0-68.266667 12.8-89.6 38.4L426.666667 469.333333l-42.666667 213.333334 213.333333-42.666667 332.8-324.266667c51.2-51.2 51.2-132.266667 0-183.466666-21.333333-21.333333-55.466667-34.133333-89.6-34.133334z"
          p-id="2082"></path>
    <path d="M810.666667 938.666667H213.333333c-72.533333 0-128-55.466667-128-128V213.333333c0-72.533333 55.466667-128 128-128h256c25.6 0 42.666667 17.066667 42.666667 42.666667s-17.066667 42.666667-42.666667 42.666667H213.333333c-25.6 0-42.666667 17.066667-42.666666 42.666666v597.333334c0 25.6 17.066667 42.666667 42.666666 42.666666h597.333334c25.6 0 42.666667-17.066667 42.666666-42.666666v-213.333334c0-25.6 17.066667-42.666667 42.666667-42.666666s42.666667 17.066667 42.666667 42.666666v213.333334c0 72.533333-55.466667 128-128 128z"
          p-id="2083"></path>
</svg>